<?xml version="1.0" encoding="UTF-8" standalone="no"?>
<svg
   xmlns:dc="http://purl.org/dc/elements/1.1/"
   xmlns:cc="http://creativecommons.org/ns#"
   xmlns:rdf="http://www.w3.org/1999/02/22-rdf-syntax-ns#"
   xmlns:svg="http://www.w3.org/2000/svg"
   xmlns="http://www.w3.org/2000/svg"
   xmlns:sodipodi="http://sodipodi.sourceforge.net/DTD/sodipodi-0.dtd"
   xmlns:inkscape="http://www.inkscape.org/namespaces/inkscape"
   viewBox="0 0 832 832"
   height="832"
   width="832"
   xml:space="preserve"
   id="svg2"
   version="1.1"
   sodipodi:docname="back-arrow.svg"
   inkscape:version="0.92.5 (2060ec1f9f, 2020-04-08)"><sodipodi:namedview
     pagecolor="#ffffff"
     bordercolor="#666666"
     borderopacity="1"
     objecttolerance="10"
     gridtolerance="10"
     guidetolerance="10"
     inkscape:pageopacity="0"
     inkscape:pageshadow="2"
     inkscape:window-width="959"
     inkscape:window-height="1023"
     id="namedview3780"
     showgrid="false"
     inkscape:zoom="0.80229423"
     inkscape:cx="225.33718"
     inkscape:cy="414.20365"
     inkscape:window-x="960"
     inkscape:window-y="0"
     inkscape:window-maximized="0"
     inkscape:current-layer="svg2" /><metadata
     id="metadata8"><rdf:RDF><cc:Work
         rdf:about=""><dc:format>image/svg+xml</dc:format><dc:type
           rdf:resource="http://purl.org/dc/dcmitype/StillImage" /><dc:title /></cc:Work></rdf:RDF></metadata><defs
     id="defs6" /><g
     transform="matrix(1.3333333,0,0,-1.3333333,0,832)"
     id="g10"><g
       transform="scale(0.1)"
       id="g12"><path
         style="fill:#ff6cfc;fill-opacity:1;fill-rule:evenodd;stroke:none;stroke-width:0.99999994"
         d="m 6240.0002,3120.0001 c 0,1716 -1404.0001,3120.0001 -3120.0001,3120.0001 C 1404.0001,6240.0002 0,4836.0001 0,3120.0001 0,1403.9901 1404.0001,3.3600001e-5 3120.0001,3.3600001e-5 4836.0001,3.3600001e-5 6240.0002,1403.9901 6240.0002,3120.0001 Z M 3956.6328,1504.7308 c 0,-101.4063 -38.6753,-202.8161 -116.0303,-280.1661 -154.6999,-154.71 -405.622,-154.71 -560.332,0 L 1522.7477,2832.5019 c -0.69,0.6799 -1.3854,1.3561 -2.0654,2.0361 -154.71,154.71 -154.71,405.666 0,560.376 l 74.707,74.707 0.029,-0.015 1723.4449,1592.5702 c 160.6805,148.4788 405.6274,154.7 560.3174,0 154.71,-154.71 154.71,-405.632 0,-560.3321 L 2361.195,3114.7333 3840.6025,1784.8821 c 77.355,-77.345 116.0303,-178.7451 116.0303,-280.1513 z"
         id="path14"
         inkscape:connector-curvature="0"
         sodipodi:nodetypes="sssssscccssccsccccs" /></g></g></svg>