<?xml version="1.0" encoding="UTF-8" standalone="no"?>
<svg
   xmlns:dc="http://purl.org/dc/elements/1.1/"
   xmlns:cc="http://creativecommons.org/ns#"
   xmlns:rdf="http://www.w3.org/1999/02/22-rdf-syntax-ns#"
   xmlns:svg="http://www.w3.org/2000/svg"
   xmlns="http://www.w3.org/2000/svg"
   xmlns:sodipodi="http://sodipodi.sourceforge.net/DTD/sodipodi-0.dtd"
   xmlns:inkscape="http://www.inkscape.org/namespaces/inkscape"
   version="1.1"
   x="0px"
   y="0px"
   viewBox="0 0 1000 1000"
   enable-background="new 0 0 1000 1000"
   xml:space="preserve"
   id="svg40"
   sodipodi:docname="cross.svg"
   inkscape:version="1.0.2 (e86c870879, 2021-01-15)"><defs
   id="defs44" /><sodipodi:namedview
   pagecolor="#ffffff"
   bordercolor="#666666"
   borderopacity="1"
   objecttolerance="10"
   gridtolerance="10"
   guidetolerance="10"
   inkscape:pageopacity="0"
   inkscape:pageshadow="2"
   inkscape:window-width="1920"
   inkscape:window-height="1014"
   id="namedview42"
   showgrid="false"
   inkscape:zoom="0.6675088"
   inkscape:cx="74.966338"
   inkscape:cy="418.35264"
   inkscape:window-x="0"
   inkscape:window-y="0"
   inkscape:window-maximized="1"
   inkscape:current-layer="g6"
   inkscape:document-rotation="0" />
<metadata
   id="metadata2"> Svg Vector Icons : http://www.onlinewebfonts.com/icon <rdf:RDF><cc:Work
     rdf:about=""><dc:format>image/svg+xml</dc:format><dc:type
       rdf:resource="http://purl.org/dc/dcmitype/StillImage" /><dc:title /></cc:Work></rdf:RDF></metadata>
<g
   id="g38"><g
     id="g6"><path
       d="M 924.3,254 C 880.5,179 821,119.5 746,75.7 670.9,31.9 588.9,10 500,10 411.1,10 329.1,31.9 254,75.7 179,119.5 119.5,179 75.7,254 31.9,329.1 10,411.1 10,500 10,588.9 31.9,670.9 75.7,746 119.5,821 179,880.5 254,924.3 329.1,968.1 411.1,990 500,990 588.9,990 670.9,968.1 746,924.3 821,880.5 880.5,821 924.3,746 968.1,670.9 990,588.9 990,500 990,411.1 968.1,329.1 924.3,254 Z M 695.04542,619.99432 c 8.1,8.1 12.1,17.7 12.1,28.7 0,11.5 -4,21.3 -12.1,29.3 l -16.9511,15.55299 c -8.1,8.1 -17.9,12.1 -29.4,12.1 -11.1,0 -20.65236,-3.94798 -28.7,-12.1 l -115.5,-115.5 -115.5,115.5 c -8.1,8.1 -17.6,12.1 -28.7,12.1 -11.5,0 -21.3,-4 -29.4,-12.1 L 307.9508,672.00189 c -8.1,-8.1 -12.1,-17.9 -12.1,-29.3 0,-11.1 4.05236,-20.54797 12.1,-28.7 l 115.5,-115.5 -115.5,-115.5 c -8.1,-8.1 -12.1,-17.6 -12.1,-28.7 0,-11.5 3.63456,-21.68272 12.1,-29.4 l 16.9511,-15.45299 c 8.46543,-7.71728 17.9,-12.1 29.4,-12.1 11.1,0 20.6,4 28.7,12.1 l 115.5,115.5 115.5,-115.5 c 8.1,-8.1 17.6,-12.1 28.7,-12.1 11.5,0 21.03139,4.27782 29.4,12.1 l 22.94352,21.44542 c 8.36861,7.82218 12.1,17.9 12.1,29.4 0,11.1 -4,20.6 -12.1,28.7 l -115.5,115.5 z"
       id="path4"
       inkscape:connector-curvature="0"
       sodipodi:nodetypes="ccsccsccsccscssccsscssccsscsssssscsssssscs"
       style="fill:#ff6cfc;fill-opacity:1" /></g><g
     id="g8" /><g
     id="g10" /><g
     id="g12" /><g
     id="g14" /><g
     id="g16" /><g
     id="g18" /><g
     id="g20" /><g
     id="g22" /><g
     id="g24" /><g
     id="g26" /><g
     id="g28" /><g
     id="g30" /><g
     id="g32" /><g
     id="g34" /><g
     id="g36" /></g>
</svg>
