<?xml version="1.0" encoding="UTF-8" standalone="no"?>
<svg
   xmlns:dc="http://purl.org/dc/elements/1.1/"
   xmlns:cc="http://creativecommons.org/ns#"
   xmlns:rdf="http://www.w3.org/1999/02/22-rdf-syntax-ns#"
   xmlns:svg="http://www.w3.org/2000/svg"
   xmlns="http://www.w3.org/2000/svg"
   xmlns:sodipodi="http://sodipodi.sourceforge.net/DTD/sodipodi-0.dtd"
   xmlns:inkscape="http://www.inkscape.org/namespaces/inkscape"
   viewBox="0 0 832 832"
   height="832"
   width="832"
   xml:space="preserve"
   id="svg2"
   version="1.1"
   sodipodi:docname="tick.svg"
   inkscape:version="1.0.2 (e86c870879, 2021-01-15)"><sodipodi:namedview
     pagecolor="#ffffff"
     bordercolor="#666666"
     borderopacity="1"
     objecttolerance="10"
     gridtolerance="10"
     guidetolerance="10"
     inkscape:pageopacity="0"
     inkscape:pageshadow="2"
     inkscape:window-width="1920"
     inkscape:window-height="1014"
     id="namedview3780"
     showgrid="false"
     inkscape:zoom="0.80229423"
     inkscape:cx="-56.978195"
     inkscape:cy="414.20365"
     inkscape:window-x="0"
     inkscape:window-y="0"
     inkscape:window-maximized="1"
     inkscape:current-layer="g12"
     inkscape:document-rotation="0" /><metadata
     id="metadata8"><rdf:RDF><cc:Work
         rdf:about=""><dc:format>image/svg+xml</dc:format><dc:type
           rdf:resource="http://purl.org/dc/dcmitype/StillImage" /></cc:Work></rdf:RDF></metadata><defs
     id="defs6" /><g
     transform="matrix(1.3333333,0,0,-1.3333333,0,832)"
     id="g10"><g
       transform="scale(0.1)"
       id="g12"><path
         style="fill:#9fe443;fill-opacity:1;fill-rule:evenodd;stroke:none;stroke-width:0.13333333"
         d="M 416 0 C 187.20001 3.7895613e-14 0 187.20001 0 416 C 3.7895613e-14 644.79999 187.20001 832 416 832 C 644.80133 832 832 644.79999 832 416 C 832 187.20001 644.80133 0 416 0 z M 608.93359 224.67773 C 622.45443 224.67773 635.97573 229.83444 646.28906 240.14844 C 666.91706 260.7751 666.91706 294.23138 646.28906 314.85938 L 369.57617 591.57422 C 369.48551 591.66622 369.39535 591.75894 369.30469 591.84961 C 348.67669 612.47761 315.21589 612.47761 294.58789 591.84961 L 284.62695 581.88867 L 284.62891 581.88477 L 185.71094 482.9668 C 165.08427 462.34013 165.08427 428.88315 185.71094 408.25781 C 206.33894 387.62981 239.79521 387.62981 260.42188 408.25781 L 331.94531 479.78125 L 571.58008 240.14844 C 581.89274 229.83444 595.41276 224.67773 608.93359 224.67773 z "
         id="path14"
         transform="matrix(7.5000002,0,0,-7.5000002,0,6240.0002)" /></g></g></svg>
